<svg width="176" height="24" viewBox="0 0 176 24" fill="none" xmlns="http://www.w3.org/2000/svg">
<path d="M10.5625 21.1249C16.3959 21.1249 21.1249 16.3959 21.1249 10.5625C21.1249 4.72897 16.3959 0 10.5625 0C4.72897 0 0 4.72897 0 10.5625C0 16.3959 4.72897 21.1249 10.5625 21.1249Z" fill="#FC8001"/>
<path d="M10.582 0.587891C5.70851 0.587891 1.75586 4.54054 1.75586 9.41401C1.75586 9.88912 1.79504 10.3569 1.86606 10.8099C3.00729 7.82952 6.12484 5.68667 9.79341 5.68667C12.8571 5.68667 15.5363 7.18054 17.0008 9.40911C17.0106 9.40911 17.0179 9.40911 17.0277 9.40911C17.9755 9.40911 18.7738 9.71034 19.3665 10.2246C19.391 9.95769 19.4057 9.68585 19.4057 9.41156C19.4057 4.53809 15.4555 0.587891 10.582 0.587891Z" fill="#FDCC01"/>
<path d="M19.369 10.2247C18.7739 9.70796 17.978 9.40918 17.0303 9.40918C17.0205 9.40918 17.0131 9.40918 17.0033 9.40918C14.4074 9.42387 11.6743 11.6794 10.8931 14.4614C10.4768 15.9431 10.6972 17.2753 11.3854 18.201C11.1209 18.2255 10.8539 18.2402 10.5821 18.2402C6.18373 18.2402 2.5372 15.0222 1.86863 10.81C1.5674 11.5961 1.40332 12.4386 1.40332 13.3178C1.40332 15.4778 2.39026 17.4247 3.9772 18.8133C4.95679 19.5945 6.07597 20.2067 7.29312 20.6035C8.32414 20.939 9.42373 21.1227 10.565 21.1227C13.7315 21.1227 16.5699 19.7267 18.5045 17.5202C19.1707 16.7586 19.7315 15.9039 20.1601 14.9733C20.2237 14.8043 20.2801 14.6353 20.3266 14.4614C20.8237 12.6884 20.4074 11.1259 19.369 10.2247Z" fill="#FD0024"/>
<path d="M76.7046 9.72732V18.4261C76.7046 18.5143 76.6336 18.5853 76.5454 18.5853H74.5127C74.4246 18.5853 74.3536 18.5143 74.3536 18.4261V10.4889C74.3536 7.97874 72.9772 6.49956 70.6091 6.49956C68.356 6.49956 66.5927 8.06446 66.5927 10.5453V18.4261C66.5927 18.5143 66.5217 18.5853 66.4336 18.5853H64.4009C64.3127 18.5853 64.2417 18.5143 64.2417 18.4261V10.4889C64.2417 7.97874 62.8654 6.49956 60.4972 6.49956C58.3029 6.49956 56.4662 8.00568 56.4662 10.5453V18.4261C56.4662 18.5143 56.3952 18.5853 56.307 18.5853H54.2891C54.2009 18.5853 54.1299 18.5143 54.1299 18.4261V4.7216C54.1299 4.63344 54.2009 4.56242 54.2891 4.56242H56.2923C56.3805 4.56242 56.4515 4.63344 56.4515 4.7216V5.88976C56.4515 6.0367 56.6327 6.10527 56.7283 5.99507C57.8474 4.72405 59.4613 4.27344 60.9136 4.27344C63.1127 4.27344 64.8711 5.20895 65.814 6.77385C65.8776 6.87915 66.0246 6.87915 66.0883 6.77385C67.2368 4.89548 69.2523 4.27344 71.0303 4.27344C74.3952 4.27589 76.7046 6.45548 76.7046 9.72732Z" fill="black"/>
<path d="M93.1862 11.3784C93.1862 15.4951 90.1887 18.4804 86.3707 18.4804C84.3944 18.4804 82.8907 17.78 81.8377 16.6755C81.7397 16.5727 81.5658 16.6462 81.5658 16.7882V23.7727C81.5658 23.8609 81.4948 23.9319 81.4066 23.9319H79.3887C79.3005 23.9319 79.2295 23.8609 79.2295 23.7727V4.72453C79.2295 4.63637 79.3005 4.56535 79.3887 4.56535H81.4066C81.4948 4.56535 81.5658 4.63637 81.5658 4.72453V5.96861C81.5658 6.11065 81.7397 6.18412 81.8377 6.08127C82.8932 4.97922 84.3968 4.27637 86.3707 4.27637C90.1862 4.27637 93.1862 7.26167 93.1862 11.3784ZM81.4213 11.3784C81.4213 14.1751 83.3438 16.2862 86.0989 16.2862C88.925 16.2862 90.7764 14.0919 90.7764 11.3784C90.7764 8.66739 88.8834 6.48535 86.0989 6.48535C83.3438 6.48535 81.4213 8.59392 81.4213 11.3784Z" fill="black"/>
<path d="M119.692 7.44285C119.648 7.52367 119.547 7.54816 119.469 7.49918C118.57 6.93591 116.92 6.32857 115.22 6.32857C113.354 6.32857 112.149 7.11714 112.149 8.35142C112.149 9.44122 113.138 9.94326 114.789 10.1441L116.368 10.3449C119.266 10.7318 120.975 11.9514 120.975 14.2045C120.975 16.8004 118.651 18.4804 114.936 18.4804C113.295 18.4804 111.091 18.0959 109.318 16.82C109.249 16.771 109.232 16.6731 109.276 16.602L110.195 15.1278C110.244 15.0494 110.349 15.0298 110.425 15.0837C111.429 15.8257 112.771 16.4282 114.951 16.4282C117.189 16.4282 118.565 15.6959 118.565 14.349C118.565 13.3449 117.676 12.7131 115.825 12.4829L114.248 12.2967C111.191 11.9245 109.715 10.5457 109.715 8.48122C109.715 5.87061 111.882 4.29102 115.195 4.29102C117.282 4.29102 119.192 4.82979 120.51 5.68694C120.581 5.73347 120.603 5.82653 120.561 5.9L119.692 7.44285Z" fill="black"/>
<path d="M131.657 7.44285C131.613 7.52367 131.512 7.54816 131.434 7.49918C130.535 6.93591 128.884 6.32857 127.185 6.32857C125.319 6.32857 124.114 7.11714 124.114 8.35142C124.114 9.44122 125.103 9.94326 126.754 10.1441L128.333 10.3449C131.23 10.7318 132.94 11.9514 132.94 14.2045C132.94 16.8004 130.616 18.4804 126.901 18.4804C125.26 18.4804 123.056 18.0959 121.283 16.82C121.214 16.771 121.197 16.6731 121.241 16.602L122.159 15.1278C122.208 15.0494 122.314 15.0298 122.39 15.0837C123.394 15.8257 124.736 16.4282 126.915 16.4282C129.154 16.4282 130.53 15.6959 130.53 14.349C130.53 13.3449 129.641 12.7131 127.79 12.4829L126.213 12.2967C123.156 11.9245 121.679 10.5457 121.679 8.48122C121.679 5.87061 123.847 4.29102 127.16 4.29102C129.247 4.29102 131.157 4.82979 132.475 5.68694C132.546 5.73347 132.568 5.82653 132.526 5.9L131.657 7.44285Z" fill="black"/>
<path d="M35.3362 14.8877C35.275 14.8264 35.177 14.8264 35.1158 14.8877C33.1027 16.7905 30.2546 16.7366 28.364 14.846C26.4268 12.9089 26.417 9.99705 28.435 7.97665C30.4162 5.99542 33.2448 5.97828 35.1819 7.80767C35.2456 7.86644 35.3411 7.86889 35.4023 7.80767L36.7395 6.47052C36.8031 6.40685 36.8031 6.30154 36.737 6.23787C33.8178 3.43134 29.564 3.46073 26.7403 6.28195C23.8799 9.14236 23.8897 13.4746 26.8113 16.3962C29.6913 19.2762 33.9501 19.3375 36.8129 16.5971C36.8791 16.5358 36.8791 16.4281 36.8154 16.3644L35.3362 14.8877Z" fill="black"/>
<path d="M40.3151 11.373C40.4008 11.373 40.4694 11.3044 40.4719 11.2163C40.5502 8.44648 42.6025 6.47261 45.2743 6.47261C48.0147 6.47261 50.0817 8.52485 50.0817 11.3804C50.0817 14.182 48.0931 16.1951 45.4311 16.271C45.3453 16.2734 45.2743 16.342 45.2743 16.4277V18.3183C45.2743 18.4089 45.3502 18.4824 45.4384 18.48C49.4866 18.3991 52.4768 15.3722 52.4768 11.3804C52.4768 7.33465 49.4057 4.27832 45.2743 4.27832C41.2017 4.27832 38.1453 7.24648 38.0596 11.2065C38.0572 11.2971 38.1331 11.373 38.2213 11.373H40.3151Z" fill="black"/>
<path d="M107.714 4.56323H105.696C105.608 4.56323 105.537 4.63425 105.537 4.72242V5.93956C104.295 4.82772 102.642 4.16895 100.776 4.16895C96.7302 4.16895 93.6738 7.23996 93.6738 11.3714C93.6738 15.444 96.642 18.5004 100.604 18.5861C100.695 18.5885 100.771 18.5126 100.771 18.4245V16.333C100.771 16.2473 100.702 16.1787 100.614 16.1763C97.8444 16.0979 95.8706 14.0457 95.8706 11.3714C95.8706 8.63098 97.9228 6.56405 100.778 6.56405C103.213 6.56405 105.539 8.26609 105.539 10.2081V12.2089V18.4245C105.539 18.5126 105.61 18.5836 105.698 18.5836H107.716C107.804 18.5836 107.875 18.5126 107.875 18.4245V10.5436V4.71997C107.875 4.6367 107.802 4.56323 107.714 4.56323Z" fill="black"/>
<path d="M46.7897 12.8428L47.473 10.2959C47.6199 9.74975 47.1204 9.25016 46.5742 9.3971L44.0273 10.0804C43.4812 10.2273 43.2975 10.9081 43.6991 11.3098L45.5628 13.1734C45.962 13.5702 46.6453 13.3889 46.7897 12.8428Z" fill="#FDCC01"/>
<ellipse cx="136.408" cy="16.8979" rx="1.71429" ry="1.71429" fill="black"/>
<path d="M174.703 13.5383C173.045 13.5383 172.283 12.6885 172.283 11.0306V0.828125H167.204V8.40527C166.051 5.9269 163.536 4.20772 160.619 4.20772C157.702 4.20772 155.19 5.92445 154.034 8.40527V4.362H149.018V11.491C149.018 12.7767 148.342 13.6485 147.208 13.6485C146.074 13.6485 145.399 12.7767 145.399 11.491V4.362H140.319V11.5571C140.319 15.9604 143.023 18.7302 147.208 18.7302C150.568 18.7302 152.968 16.864 153.754 13.8444C154.736 16.6877 157.438 18.7302 160.616 18.7302C163.754 18.7302 166.425 16.7416 167.439 13.9571C168.189 17.1898 170.635 18.62 173.914 18.62H175.2V13.5408H174.703V13.5383ZM160.619 13.6485C159.419 13.6485 158.439 12.6665 158.439 11.4689C158.439 10.2689 159.421 9.28935 160.619 9.28935C161.819 9.28935 162.799 10.2714 162.799 11.4689C162.799 12.6665 161.816 13.6485 160.619 13.6485Z" fill="black"/>
</svg>
